<?xml version="1.0" encoding="utf-8"?>
<!-- Generator: Adobe Illustrator 19.0.0, SVG Export Plug-In . SVG Version: 6.00 Build 0)  -->
<svg version="1.1" id="Layer_1" xmlns="http://www.w3.org/2000/svg" xmlns:xlink="http://www.w3.org/1999/xlink" x="0px" y="0px"
	 viewBox="-390 687 100 100" style="enable-background:new -390 687 100 100;" xml:space="preserve">
<style type="text/css">
	.st0{fill:#BDA67C;}
	.st1{fill:none;stroke:#BDA67C;stroke-width:3.7;stroke-linecap:round;stroke-linejoin:round;stroke-miterlimit:10;}
</style>
<path class="st0" d="M-868.2,718.5h-61.6c-1.4,0-2.6-1.2-2.6-2.6s1.2-2.6,2.6-2.6h61.5c1.4,0,2.6,1.2,2.6,2.6
	C-865.7,717.3-866.7,718.5-868.2,718.5z M-868.2,740.6h-61.6c-1.4,0-2.6-1.2-2.6-2.6s1.2-2.6,2.6-2.6h61.5c1.4,0,2.6,1.2,2.6,2.6
	S-866.7,740.6-868.2,740.6z M-868.2,762.7h-61.6c-1.4,0-2.6-1.2-2.6-2.6s1.2-2.6,2.6-2.6h61.5c1.4,0,2.6,1.2,2.6,2.6
	S-866.7,762.7-868.2,762.7z"/>
<path class="st0" d="M-757.8,699.8c-21.1,0-38.2,17.1-38.2,38.2s17.2,38.2,38.2,38.2s38.2-17.1,38.2-38.2
	C-719.5,716.9-736.7,699.8-757.8,699.8z M-757.8,772.5c-19,0-34.5-15.5-34.5-34.5s15.5-34.5,34.5-34.5s34.5,15.5,34.5,34.5
	S-738.7,772.5-757.8,772.5z M-738.3,738c0,1-0.8,1.8-1.8,1.8h-29.3l10.4,10.4c0.7,0.7,0.7,1.9,0,2.6c-0.4,0.4-0.8,0.5-1.3,0.5
	s-0.9-0.2-1.3-0.5l-13.6-13.5c-0.1-0.1-0.2-0.2-0.2-0.3l-0.1-0.1c0-0.1-0.1-0.1-0.1-0.2c0-0.1,0-0.1-0.1-0.2c0-0.1,0-0.1,0-0.2
	c0-0.2,0-0.5,0-0.7c0-0.1,0-0.1,0-0.2c0-0.1,0-0.1,0.1-0.2c0-0.1,0.1-0.1,0.1-0.2c0,0,0-0.1,0.1-0.1c0.1-0.1,0.1-0.2,0.2-0.3
	l13.7-13.7c0.7-0.7,1.9-0.7,2.6,0c0.7,0.7,0.7,1.9,0,2.6l-10.5,10.6h29.3C-739.1,736.1-738.3,737-738.3,738z"/>
<g>
	<path class="st0" d="M-625.9,759.7c-15.8,0-28.7-12.9-28.7-28.7c0-15.8,12.9-28.7,28.7-28.7c15.8,0,28.7,12.9,28.7,28.7
		C-597.2,746.8-610.1,759.7-625.9,759.7z M-625.9,706c-13.8,0-25,11.2-25,25c0,13.8,11.2,25,25,25c13.8,0,25-11.2,25-25
		C-600.9,717.2-612.2,706-625.9,706z"/>
	<path class="st0" d="M-585.1,773.7c-0.5,0-0.9-0.2-1.3-0.5l-21.9-21.9c-0.7-0.7-0.7-1.9,0-2.6c0.7-0.7,1.9-0.7,2.6,0l21.9,21.9
		c0.7,0.7,0.7,1.9,0,2.6C-584.1,773.5-584.6,773.7-585.1,773.7z"/>
</g>
<path class="st0" d="M-313.8,715.2h-10.5v-4.7c0-8.6-7-15.7-15.7-15.7c-8.6,0-15.7,7-15.7,15.7v4.7h-10.5c-1,0-1.8,0.8-1.8,1.8v57.1
	c0,1,0.8,1.8,1.8,1.8h52.4c1,0,1.8-0.8,1.8-1.8V717C-312,716-312.8,715.2-313.8,715.2z M-352.1,710.6c0-6.7,5.4-12.1,12.1-12.1
	s12.1,5.4,12.1,12.1v4.7h-24.1V710.6z M-315.6,772.3h-48.8v-53.5h8.7v3.7c0,1,0.8,1.8,1.8,1.8c1,0,1.8-0.8,1.8-1.8v-3.7h24.1v3.7
	c0,1,0.8,1.8,1.8,1.8c1,0,1.8-0.8,1.8-1.8v-3.7h8.7C-315.6,718.8-315.6,772.3-315.6,772.3z"/>
<g>
	<path class="st1" d="M-448.9,713.5c-6.8-6.8-17.9-6.8-24.8,0l-4.5,4.5l-4.5-4.5c-6.8-6.8-17.9-6.8-24.8,0c-6.8,6.8-6.8,17.9,0,24.8
		l4.5,4.5l0,0l24.8,24.8l24.8-24.8l0,0l4.5-4.5C-442.1,731.5-442.1,720.4-448.9,713.5z"/>
</g>
</svg>
