<?xml version="1.0" encoding="utf-8"?>
<!-- Generator: Adobe Illustrator 19.0.0, SVG Export Plug-In . SVG Version: 6.00 Build 0)  -->
<svg version="1.1" id="Layer_1" xmlns="http://www.w3.org/2000/svg" xmlns:xlink="http://www.w3.org/1999/xlink" x="0px" y="0px"
	 viewBox="-949 701 100 100" style="enable-background:new -949 701 100 100;" xml:space="preserve">
<style type="text/css">
	.st0{fill:#BDA67C;}
	.st1{fill:none;stroke:#BDA67C;stroke-width:3.7;stroke-linecap:round;stroke-linejoin:round;stroke-miterlimit:10;}
</style>
<path class="st0" d="M-1817.2,1419.5h-61.6c-1.4,0-2.6-1.2-2.6-2.6s1.2-2.6,2.6-2.6h61.5c1.4,0,2.6,1.2,2.6,2.6
	S-1815.7,1419.5-1817.2,1419.5z M-1817.2,1441.6h-61.6c-1.4,0-2.6-1.2-2.6-2.6s1.2-2.6,2.6-2.6h61.5c1.4,0,2.6,1.2,2.6,2.6
	S-1815.7,1441.6-1817.2,1441.6z M-1817.2,1463.7h-61.6c-1.4,0-2.6-1.2-2.6-2.6c0-1.4,1.2-2.6,2.6-2.6h61.5c1.4,0,2.6,1.2,2.6,2.6
	C-1814.7,1462.5-1815.7,1463.7-1817.2,1463.7z"/>
<path class="st0" d="M-1706.8,1400.8c-21.1,0-38.2,17.1-38.2,38.2s17.2,38.2,38.2,38.2s38.2-17.1,38.2-38.2
	C-1668.5,1417.9-1685.7,1400.8-1706.8,1400.8z M-1706.8,1473.5c-19,0-34.5-15.5-34.5-34.5s15.5-34.5,34.5-34.5s34.5,15.5,34.5,34.5
	S-1687.7,1473.5-1706.8,1473.5z M-1687.3,1439c0,1-0.8,1.8-1.8,1.8h-29.3l10.4,10.4c0.7,0.7,0.7,1.9,0,2.6c-0.4,0.4-0.8,0.5-1.3,0.5
	s-0.9-0.2-1.3-0.5l-13.6-13.5c-0.1-0.1-0.2-0.2-0.2-0.3l-0.1-0.1c0-0.1-0.1-0.1-0.1-0.2c0-0.1,0-0.1-0.1-0.2c0-0.1,0-0.1,0-0.2
	c0-0.2,0-0.5,0-0.7c0-0.1,0-0.1,0-0.2c0-0.1,0-0.1,0.1-0.2c0-0.1,0.1-0.1,0.1-0.2c0,0,0-0.1,0.1-0.1c0.1-0.1,0.1-0.2,0.2-0.3
	l13.7-13.7c0.7-0.7,1.9-0.7,2.6,0c0.7,0.7,0.7,1.9,0,2.6l-10.5,10.6h29.3C-1688.1,1437.1-1687.3,1438-1687.3,1439z"/>
<g>
	<path class="st0" d="M-1574.9,1460.7c-15.8,0-28.7-12.9-28.7-28.7s12.9-28.7,28.7-28.7s28.7,12.9,28.7,28.7
		S-1559.1,1460.7-1574.9,1460.7z M-1574.9,1407c-13.8,0-25,11.2-25,25s11.2,25,25,25s25-11.2,25-25S-1561.2,1407-1574.9,1407z"/>
	<path class="st0" d="M-1534.1,1474.7c-0.5,0-0.9-0.2-1.3-0.5l-21.9-21.9c-0.7-0.7-0.7-1.9,0-2.6c0.7-0.7,1.9-0.7,2.6,0l21.9,21.9
		c0.7,0.7,0.7,1.9,0,2.6C-1533.1,1474.5-1533.6,1474.7-1534.1,1474.7z"/>
</g>
<path class="st0" d="M-1262.8,1416.2h-10.5v-4.7c0-8.6-7-15.7-15.7-15.7c-8.6,0-15.7,7-15.7,15.7v4.7h-10.5c-1,0-1.8,0.8-1.8,1.8
	v57.1c0,1,0.8,1.8,1.8,1.8h52.4c1,0,1.8-0.8,1.8-1.8V1418C-1261,1417-1261.8,1416.2-1262.8,1416.2z M-1301.1,1411.6
	c0-6.7,5.4-12.1,12.1-12.1s12.1,5.4,12.1,12.1v4.7h-24.1L-1301.1,1411.6L-1301.1,1411.6z M-1264.6,1473.3h-48.8v-53.5h8.7v3.7
	c0,1,0.8,1.8,1.8,1.8s1.8-0.8,1.8-1.8v-3.7h24.1v3.7c0,1,0.8,1.8,1.8,1.8s1.8-0.8,1.8-1.8v-3.7h8.7
	C-1264.6,1419.8-1264.6,1473.3-1264.6,1473.3z"/>
<g>
	<path class="st1" d="M-1397.9,1414.5c-6.8-6.8-17.9-6.8-24.8,0l-4.5,4.5l-4.5-4.5c-6.8-6.8-17.9-6.8-24.8,0
		c-6.8,6.8-6.8,17.9,0,24.8l4.5,4.5l0,0l24.8,24.8l24.8-24.8l0,0l4.5-4.5C-1391.1,1432.5-1391.1,1421.4-1397.9,1414.5z"/>
</g>
<path class="st0" d="M-875.7,786.1c0,1-0.8,1.8-1.8,1.8h-41.4c-1,0-1.8-0.8-1.8-1.8v-55.8h-3.6v55.8c0,3,2.4,5.4,5.4,5.4h41.4
	c3,0,5.4-2.4,5.4-5.4v-55.8h-3.6V786.1z M-884.7,721.3v-5.4c0-3-2.4-5.4-5.4-5.4h-16.2c-3,0-5.4,2.4-5.4,5.4v5.4h-18v3.6h63v-3.6
	H-884.7z M-888.3,721.3h-19.8v-5.4c0-1,0.8-1.8,1.8-1.8h16.2c1,0,1.8,0.8,1.8,1.8V721.3z M-908.1,735.7v43.2h3.6v-43.2H-908.1z
	 M-891.9,735.7v43.2h3.6v-43.2H-891.9z"/>
</svg>
